<?xml version="1.0" encoding="utf-8"?>
<!DOCTYPE svg PUBLIC "-//W3C//DTD SVG 20010904//EN" "http://www.w3.org/TR/2001/REC-SVG-20010904/DTD/svg10.dtd">
<svg version="1.0" xmlns="http://www.w3.org/2000/svg" width="1024px" height="1024px" viewBox="0 0 1024 1024" preserveAspectRatio="xMidYMid meet">
<g>
	<circle fill="#FFFFFF" cx="512" cy="512" r="509.3"/>
	<path fill="none" d="M746.3,277.6c-11-11-22.7-21-34.8-30.1l-186,229.3L724,758.7c7.7-6.4,15.1-13.1,22.3-20.3
		C873.5,611.2,873.5,404.9,746.3,277.6z"/>
	<path fill="none" d="M362,451.1l214.2-263.2c-72.2-13.5-148-2.6-214.2,32.9V451.1z"/>
	<path fill="none" d="M419.9,576.9L362,643v152.3c68.8,36.9,148.1,47.2,222.8,31.1L419.9,576.9z"/>
</g>
<g>
	
		<linearGradient id="SVGID_1_" gradientUnits="userSpaceOnUse" x1="393.532" y1="197.682" x2="840.5414" y2="644.6914" gradientTransform="matrix(1 0 0 -1 0 1026)">
		<stop  offset="0" style="stop-color:#FCEE21"/>
		<stop  offset="1" style="stop-color:#29ABE2"/>
	</linearGradient>
	<path fill="url(#SVGID_1_)" d="M746.3,277.6c-11-11-22.7-21-34.8-30.1l-186,229.3L724,758.7c7.7-6.4,15.1-13.1,22.3-20.3
		C873.5,611.2,873.5,404.9,746.3,277.6z"/>
	
		<linearGradient id="SVGID_00000155835094505378211930000007307384067226083499_" gradientUnits="userSpaceOnUse" x1="131.5797" y1="459.6297" x2="578.5856" y2="906.6356" gradientTransform="matrix(1 0 0 -1 0 1026)">
		<stop  offset="0" style="stop-color:#FCEE21"/>
		<stop  offset="1" style="stop-color:#29ABE2"/>
	</linearGradient>
	<path fill="url(#SVGID_00000155835094505378211930000007307384067226083499_)" d="M362,451.1l214.2-263.2
		c-72.2-13.5-148-2.6-214.2,32.9V451.1z"/>
	
		<linearGradient id="SVGID_00000097495658364406371490000001581140228160338608_" gradientUnits="userSpaceOnUse" x1="384.6056" y1="206.6056" x2="831.6135" y2="653.6135" gradientTransform="matrix(1 0 0 -1 0 1026)">
		<stop  offset="0" style="stop-color:#FCEE21"/>
		<stop  offset="1" style="stop-color:#29ABE2"/>
	</linearGradient>
	<path fill="url(#SVGID_00000097495658364406371490000001581140228160338608_)" d="M419.9,576.9L362,643v152.3
		c68.8,36.9,148.1,47.2,222.8,31.1L419.9,576.9z"/>
</g>
</svg>