<svg fill="none" xmlns="http://www.w3.org/2000/svg">
<path fill="none" d="M60.2,12.4h8.7v25.4h-8.7C60.2,37.8,60.2,12.4,60.2,12.4z"/>
<path fill="none" d="M48.3,10.5c-3.3,0-6.8,0.8-7.6,2.3c0,0,0,0,0,0.1V2.2h-8.9v16.9l0,0c0.9,0.4,1.8,0.9,2.7,1.4
	c0.3,0.2,0.6,0.3,0.8,0.5c0.1,0.1,0.2,0.1,0.4,0.2c0,0-5.1,8-12.1,9.6c-4.1,1-9-0.2-10-4.3c0-0.2-0.1-0.3-0.1-0.5
	c0.7-0.4,1.3-0.7,2-1.1c1.7-0.7,3-1.3,3.5-1.5h0.1l0,0l0,0c4.1-1.5,7.5-2,7.5-2c-3.1-0.3-5.8-0.1-8,0.4l0,0l0,0c-2,0.4-3.7,1-5,1.6
	c0.7-3,3.3-5.6,6.4-6.3c0.3-0.1,0.5-0.1,0.8-0.2c0.1,0,0.2,0,0.2,0c0.2,0,0.4-0.1,0.6-0.1c0.1,0,0.1,0,0.2,0c0.3,0,0.6,0,0.8,0
	c0.1,0,0.1,0,0.2,0c0.2,0,0.5,0,0.7,0c0.1,0,0.2,0,0.2,0c0.1,0,0.2,0,0.2,0c1.3,0.1,2.9,0.5,4.7,1.1v-5.8c-0.9-0.3-1.8-0.5-2.7-0.8
	c-2.5-0.7-6.8-1.4-11.6-0.2C6.7,13,4.5,18.6,4.5,25.5c0,0.9,0.1,1.7,0.2,2.5C3,29.1,1.4,30.3,0,31.8c0,0,2.2-1,5.1-2.3
	c1.9,6.6,8.7,8.8,13.8,8.8c5.3,0,8.7-1.5,12.7-4v3.2h8.9v-16c0,0,0,0,0-0.1v-0.3c0.8-2.3,2.3-2.9,3.9-2.9c2.1,0,3.4,1.5,3.4,3.9
	v15.2h8.9V19.7C57,14.1,53.5,10.5,48.3,10.5z"/>
<path fill="none" d="M64.4,0c-2.7,0-4.6,1.9-4.6,4.6s1.9,4.6,4.6,4.6S69,7.3,69,4.6S67.1,0,64.4,0z"/>
<path fill="none" d="M99.2,37.8h-8.4c0-0.6-1.5-2.6-4.4-6.1c-3.1-3.7-4.7-4.6-6-4.6l0,0c0,2.9,0,6,0,10.7h-8.3c0-3.7,0-21.5,0-25
	h8.3c0,3.7,0.1,7.2,0.1,10l0,0c0.8,0,1.7-1.6,4.8-4.7c3-3,4.4-4.8,4.4-5.3h7.7c0,0.4-1.5,2-4.7,4.8c-3.3,2.8-5.6,4.7-7.1,5.5v0.3
	c1.7,0.7,4.5,3.2,8.3,7.6C97.4,35,99.2,37.3,99.2,37.8z"/>
</svg>
