<svg width="150px" height="58px" viewBox="0 0 150 58" version="1.1" xmlns="http://www.w3.org/2000/svg" xmlns:xlink="http://www.w3.org/1999/xlink">
    <g id="Community" stroke="none" stroke-width="1" fill="none" fill-rule="evenodd">
        <g transform="translate(-189.000000, -1096.000000)" fill="#3AAC59" fill-rule="nonzero" id="footer">
            <g transform="translate(0.000000, 988.000000)">
                <g id="Group-14" transform="translate(189.000000, 108.000000)">
                    <g id="chik-logo-(1)">
                        <polygon id="Rectangle-path" points="90 19 103 19 103 57 90 57"></polygon>
                        <g id="Group">
                            <path id="Shape" class="st0" d="M72.2,16.1c-5,0-10.1,1.2-11.4,3.4c0,0,0,0.1-0.1,0.1V3.7H47.4V29l0,0
							c1.3,0.6,2.7,1.3,4.1,2.1c0.5,0.3,0.9,0.5,1.2,0.7c0.2,0.1,0.4,0.2,0.5,0.3c0,0-7.6,11.9-18,14.4C29,48,21.8,46.2,20.3,40
							c-0.1-0.3-0.1-0.5-0.1-0.8c1-0.6,2-1.1,3-1.6c2.5-1.1,4.5-1.9,5.2-2.2c0.1,0,0.1,0,0.2-0.1l0,0l0,0c6.1-2.2,11.2-3,11.2-3
							c-4.8-0.3-8.7,0-12.1,0.7l0,0c0,0,0,0-0.1,0c-3,0.6-5.5,1.5-7.4,2.4c1.1-4.4,4.9-8.3,9.5-9.4c0.4-0.1,0.8-0.2,1.2-0.2
							c0.1,0,0.2,0,0.4,0c0.3,0,0.6-0.1,1-0.1c0.1,0,0.2,0,0.3,0c0.4,0,0.8,0,1.2,0c0.1,0,0.2,0,0.2,0c0.3,0,0.7,0,1,0
							c0.1,0,0.2,0,0.4,0s0.2,0,0.4,0c2,0.2,4.4,0.7,7.1,1.6v-8.7c-1.3-0.4-2.7-0.8-4.1-1.1c-3.8-1-10.2-2.1-17.3-0.3
							c-11.3,2.6-14.6,11-14.6,21.3c0,1.3,0.1,2.5,0.3,3.7c-2.5,1.6-4.9,3.5-7.1,5.7c0,0,3.3-1.5,7.6-3.4c2.9,9.9,13,13.2,20.6,13.2
							c7.9,0,13-2.3,19.1-6v4.8h13.3V32.6c0,0,0-0.1,0.1-0.1v-0.4c1.3-3.4,3.4-4.3,5.8-4.3c3.2,0,5.2,2.3,5.2,5.8v22.7h13.3V29.9
							C85.1,21.5,79.9,16.1,72.2,16.1"/>
						<path id="Shape_00000092445443718806461870000015230484141178778241_" class="st0" d="M96.3,0.4c-4,0-6.9,2.8-6.9,6.9
							s2.8,6.9,6.9,6.9s6.9-2.8,6.9-6.9S100.3,0.4,96.3,0.4"/>
						<path id="Shape_00000003821190440124890350000014533777697510351502_" class="st0" d="M149.1,57H136c0-0.9-2.3-4-6.8-9.3
							c-4.8-5.6-7.3-7-9.3-7l0,0c0,4.4,0,9.1,0,16.2h-13c0-5.7,0-32.7,0-38h13c0,5.6,0.1,11,0.1,15.2l0,0c1.2,0,2.7-2.4,7.5-7.2
							c4.6-4.6,6.9-7.3,6.9-8h12c0,0.6-2.4,3.1-7.3,7.3c-5.1,4.3-8.7,7.1-11.1,8.3V35c2.7,1,7,4.9,12.9,11.5
							C146.3,52.7,149.1,56.2,149.1,57z"/>
                        </g>
                    </g>
                </g>
            </g>
        </g>
    </g>
</svg>
